<?xml version="1.0" encoding="utf-8"?>
<!-- Generator: Adobe Adobe Illustrator 24.2.0, SVG Export Plug-In . SVG Version: 6.00 Build 0)  -->
<svg version="1.1" id="Layer_1" xmlns="http://www.w3.org/2000/svg" xmlns:xlink="http://www.w3.org/1999/xlink" x="0px" y="0px"
	 width="1728px" height="1296px" viewBox="0 0 1728 1296" style="enable-background:new 0 0 1728 1296;" xml:space="preserve">
<style type="text/css">
	.st0{fill:#FFFFFF;stroke:#000000;stroke-width:37;stroke-miterlimit:10;}
</style>
<g>
	<ellipse class="st0" cx="916.57" cy="600.43" rx="578" ry="573"/>
	<ellipse class="st0" cx="916.57" cy="600.43" rx="578" ry="573"/>
	<path d="M1369.57,509.11c4.51,18,4.45,35.58,2.88,53.42c-3.05,34.75-13.69,67.27-27.52,99c-13.08,30-34.32,51.75-65.38,63.41
		c-15.25,5.72-30.84,7.32-46.68,2.31c-2.13-0.67-4.25-1.44-6.25-2.41c-9.18-4.43-13.19-11.39-12.53-21.5
		c0.18-2.8,0.31-5.61,0.49-8.93c-5.75,5.85-10.75,11.35-16.18,16.4c-16.12,14.99-35.82,22.41-57.25,25.74
		c-8.37,1.3-16.87,2.36-25.31,2.41c-6.39,0.04-12.97-1.06-19.14-2.79c-15.59-4.35-25.31-16.42-26.16-33.4
		c-0.65-12.85-0.16-25.8,0.43-38.67c1.86-40.09,12.02-78.63,22.71-117.05c1.19-4.28,2.27-8.59,3.37-12.9
		c0.04-0.16-0.18-0.4-0.65-1.34c-13.59,9.51-29.05,9.87-45.57,7.94c0.22,3.57,0.3,6.38,0.58,9.17c2.35,23.69,4.85,47.37,7.01,71.07
		c0.54,5.95,0.22,12.01,0.01,18c-0.35,9.76,0.07,19.69-1.68,29.22c-2.44,13.29-6.3,26.39-12.78,38.45
		c-5.07,9.44-12.4,16.85-21.77,22.17c-13.33,7.56-26.29,4.6-34.26-8.31c-6.08-9.84-12.11-19.96-12.35-31.95
		c-0.17-8.83,0.2-17.73,1.07-26.52c3.47-35.24,7.02-70.46,7.11-105.92c0.02-6.66-0.31-13.35-0.92-19.99
		c-1.09-11.81-10.72-19.49-22.7-18.5c-13.19,1.08-26.36,2.56-39.57,3c-8.69,0.29-17.44-0.74-26.13-1.59
		c-7.56-0.74-14.24-3.82-19.86-9.32c-6.4,4.53-12.68,9.03-19.03,13.46c-6.29,4.39-13.1,8.22-18.08,15.93
		c4.35,0.39,7.41,0.83,10.48,0.91c13.55,0.33,26.95,2.14,39.58,6.88c31.63,11.87,52.69,32.97,57.71,67.47
		c2.49,17.13-0.62,33.57-5.92,49.74c-3.4,10.37-6.95,20.72-14.59,29.01c-2.57,2.79-5.06,5.67-7.85,8.24
		c-7.22,6.67-14.43,13.34-21.92,19.71c-6.34,5.38-13.55,8.51-21.96,10.57c-13.75,3.36-27.52,4.35-41.29,3.27
		c-15.75-1.24-31.65-3.19-45.7-11.51c-2.85-1.69-5.53-3.83-7.89-6.16c-5.07-4.99-10.11-10.06-14.73-15.46
		c-2.38-2.78-3.82-6.35-5.98-10.08c-0.81,1.35-1.68,2.69-2.44,4.08c-4.21,7.73-9.48,14.56-16.88,19.58
		c-8.27,5.62-16.68,5.83-25.16,0.52c-6.62-4.14-11.68-9.62-14.57-16.96c-0.89-2.27-1.86-4.55-3.14-6.61
		c-12.23-19.71-16.39-41.68-18.22-64.25c-1.33-16.4-2.21-32.84-3.36-50.34c-3.16,3.62-6.46,6.51-8.61,10.09
		c-2.99,4.95-7.27,7.86-12.48,9.54c-10.25,3.32-20.6,6.22-31.61,5.48c-2.62-0.18-5.28,0.31-8.15,0.51
		c-1.38,4.79-0.61,9.1,0.18,13.43c2.09,11.55,4.81,23.04,5.95,34.68c1.47,15.13,0.23,30.08-7,44.09
		c-10.68,20.7-26.77,33.69-50.64,35.52c-21.14,1.62-34.54-10.67-36.44-31.27c-0.12-1.33-0.22-2.67-0.22-4
		c-0.02-22.68-0.05-45.35-0.02-68.03c0.02-13.6,0.85-27.12,4.21-40.39c0.09-0.37-0.15-0.83-0.32-1.63
		c-1.99,1.04-3.98,1.89-5.77,3.05c-10.44,6.77-21.94,11.13-33.88,14.35c-10.02,2.71-20.18,3.88-30.59,2.01
		c-6.12-1.1-10.23-4.14-12.27-9.98c-5.57-15.92-5.18-31.51,2.94-46.51c8.49-15.69,20.37-28.67,33.51-40.63
		c7.68-7,16.53-12.23,25.6-17.1c11.04-5.92,22.36-11.33,33.34-17.35c13.76-7.54,28.67-10.29,44.03-10.42
		c15.02-0.12,30.05,0.65,45.06,1.34c10.53,0.48,19.19,5.84,27.32,11.85c6.13,4.53,11.37,9.98,14.96,16.93
		c3.05,5.9,6.68,11.51,10.34,17.75c1.55-2.22,2.92-4.65,4.74-6.69c2.94-3.31,5.79-6.88,9.34-9.45c8.42-6.09,17.75-4.92,24.72,2.84
		c4.17,4.65,7.65,9.91,11.87,14.5c6.95,7.56,14.26,14.79,21.41,22.17c6.06,6.25,12.1,12.52,18.71,19.37
		c1.06-2.45,2.11-4.75,3.05-7.09c12.69-31.44,35.33-53.66,65.22-69.07c7.47-3.85,15.52-5.75,24.02-5.48
		c10.2,0.33,19.18,2.79,23.3,13.1c0.89,0.04,1.4,0.22,1.73,0.05c18.51-9.33,38.68-12.55,58.86-15.57
		c21.32-3.19,42.75-5.89,64.36-4.32c19.67,1.42,39.28,3.79,58.94,5.47c12.51,1.06,25.07,1.55,37.6,2.43
		c4.25,0.29,8.5,0.78,12.69,1.51c6.62,1.16,8.27,3.37,7.62,10.14c-0.27,2.83-1.05,5.62-1.79,9.39
		c27.72-11.8,55.73-21.06,85.37-27.53c-1.32-9.44-2.67-19.01-4.06-28.93c3.77-1.46,7.09-2.65,10.34-4.02
		c18.02-7.57,36.58-13.31,55.78-17.16c16.24-3.26,30.84-1.03,44.4,9.33c13.9,10.62,26.22,22.37,33.94,38.15
		c2.72,5.56,4.56,11.57,6.42,17.5C1364.43,490.58,1366.87,499.59,1369.57,509.11z M1257.4,580.95c3.49,22.5,4.2,45.48,10.96,66.66
		c7.98,0,15.12-0.2,22.24,0.11c2.42,0.11,3.69-0.91,5.18-2.29c9.74-9.06,17.47-19.53,24.11-31.06c18.08-31.39,17.53-63.61,5.5-96.55
		c-3.13-8.56-6.44-17.06-9.99-25.46c-1.81-4.27-3.78-8.68-6.66-12.25c-3-3.71-6.82-7.05-10.9-9.56c-10.52-6.5-20.31-2.02-29.74,3.13
		c-1.31,0.72-2.27,2.7-2.68,4.28c-1.33,5.17-2.36,10.41-3.45,15.64C1256.02,522.08,1252.32,550.68,1257.4,580.95z M876.37,635.62
		c0.38-3.53,1.09-7.07,1.07-10.6c-0.08-15.34-6.34-27.73-17.73-38.15c-12.63-11.56-28.12-15.81-44.94-6.71
		c-2.69,1.46-5.8,2.21-8.79,3.06c-6.17,1.76-12.39,3.36-19.14,5.17c4.12,24.17-6.35,45.22-14.79,66.11
		c2.65,3.18,5.07,5.56,6.88,8.33c12.26,18.82,44.18,26.13,62.97,13.62c5.77-3.84,11.86-7.21,17.55-11.17
		c7.58-5.27,13.03-12.13,14.76-21.48C874.64,641.41,875.47,639.09,876.37,635.62z M1212.35,550.84c-7.31,2.79-14.51,5.92-21.95,8.3
		c-13.07,4.18-25.68,9.3-37.44,16.37c-2.28,1.37-4.56,2.9-6.44,4.76c-4.22,4.17-4.82,8.6-2.34,14.01c2.94,6.41,7.94,9.52,15.24,7.88
		c9.81-2.21,19.45-5.18,29.06-8.16c9-2.79,17.83-6.21,27.88-3.79c0-13.85,0-27.04,0-40.83
		C1214.87,549.88,1214.09,550.14,1212.35,550.84z M1179.03,671.78c11.77-2.9,21.52-9.66,31.32-16.28c1.15-0.78,2.37-2.26,2.54-3.55
		c0.93-6.98,2.06-13.98,0.9-21.64c-1.94,0.12-3.66,0.1-5.33,0.35c-7.29,1.1-14.55,2.4-21.86,3.41c-10.72,1.48-21.1,4.32-30.8,8.91
		c-5.75,2.72-11.39,6.32-15.99,10.66c-5.97,5.64-4.82,12.7,1.63,17.72c3.52,2.74,7.45,4.01,11.9,3.54
		C1161.56,674.03,1169.77,673.09,1179.03,671.78z M637.71,521.18c-1.1-4.38-4.12-5.12-8.22-4.77c-11.74,1.02-22.76,4.74-33.73,8.6
		c-10.82,3.8-21.13,8.64-29.88,16.24c-4.39,3.82-5.21,6.69-2.34,11.66c1.37,2.38,3.65,4.45,5.95,6.04
		c5.8,4.02,12.35,3.27,18.83,2.12c10.89-1.94,19.81-7.97,28.9-13.68c7.14-4.48,12.76-10.5,17.51-17.29
		C636.32,527.85,636.87,524.88,637.71,521.18z M731.07,628.26c1.27-2.22,3.14-4.3,3.7-6.69c1.12-4.74,1.74-9.62,2.17-14.47
		c0.89-10.17,1.98-20.39-0.5-30.49c-1.83-7.46-6.32-12.43-14.79-14.4c-1.1,2.66-2.4,4.96-3,7.43c-3.29,13.53-3.42,27.32-2.48,41.07
		c0.39,5.63,1.05,11.49,5.26,16.18C724.03,629.79,726.57,631.06,731.07,628.26z"/>
	<ellipse class="st0" cx="916.57" cy="600.43" rx="578" ry="573"/>
	<ellipse class="st0" cx="916.57" cy="600.43" rx="578" ry="573"/>
	<path d="M1369.57,509.11c4.51,18,4.45,35.58,2.88,53.42c-3.05,34.75-13.69,67.27-27.52,99c-13.08,30-34.32,51.75-65.38,63.41
		c-15.25,5.72-30.84,7.32-46.68,2.31c-2.13-0.67-4.25-1.44-6.25-2.41c-9.18-4.43-13.19-11.39-12.53-21.5
		c0.18-2.8,0.31-5.61,0.49-8.93c-5.75,5.85-10.75,11.35-16.18,16.4c-16.12,14.99-35.82,22.41-57.25,25.74
		c-8.37,1.3-16.87,2.36-25.31,2.41c-6.39,0.04-12.97-1.06-19.14-2.79c-15.59-4.35-25.31-16.42-26.16-33.4
		c-0.65-12.85-0.16-25.8,0.43-38.67c1.86-40.09,12.02-78.63,22.71-117.05c1.19-4.28,2.27-8.59,3.37-12.9
		c0.04-0.16-0.18-0.4-0.65-1.34c-13.59,9.51-29.05,9.87-45.57,7.94c0.22,3.57,0.3,6.38,0.58,9.17c2.35,23.69,4.85,47.37,7.01,71.07
		c0.54,5.95,0.22,12.01,0.01,18c-0.35,9.76,0.07,19.69-1.68,29.22c-2.44,13.29-6.3,26.39-12.78,38.45
		c-5.07,9.44-12.4,16.85-21.77,22.17c-13.33,7.56-26.29,4.6-34.26-8.31c-6.08-9.84-12.11-19.96-12.35-31.95
		c-0.17-8.83,0.2-17.73,1.07-26.52c3.47-35.24,7.02-70.46,7.11-105.92c0.02-6.66-0.31-13.35-0.92-19.99
		c-1.09-11.81-10.72-19.49-22.7-18.5c-13.19,1.08-26.36,2.56-39.57,3c-8.69,0.29-17.44-0.74-26.13-1.59
		c-7.56-0.74-14.24-3.82-19.86-9.32c-6.4,4.53-12.68,9.03-19.03,13.46c-6.29,4.39-13.1,8.22-18.08,15.93
		c4.35,0.39,7.41,0.83,10.48,0.91c13.55,0.33,26.95,2.14,39.58,6.88c31.63,11.87,52.69,32.97,57.71,67.47
		c2.49,17.13-0.62,33.57-5.92,49.74c-3.4,10.37-6.95,20.72-14.59,29.01c-2.57,2.79-5.06,5.67-7.85,8.24
		c-7.22,6.67-14.43,13.34-21.92,19.71c-6.34,5.38-13.55,8.51-21.96,10.57c-13.75,3.36-27.52,4.35-41.29,3.27
		c-15.75-1.24-31.65-3.19-45.7-11.51c-2.85-1.69-5.53-3.83-7.89-6.16c-5.07-4.99-10.11-10.06-14.73-15.46
		c-2.38-2.78-3.82-6.35-5.98-10.08c-0.81,1.35-1.68,2.69-2.44,4.08c-4.21,7.73-9.48,14.56-16.88,19.58
		c-8.27,5.62-16.68,5.83-25.16,0.52c-6.62-4.14-11.68-9.62-14.57-16.96c-0.89-2.27-1.86-4.55-3.14-6.61
		c-12.23-19.71-16.39-41.68-18.22-64.25c-1.33-16.4-2.21-32.84-3.36-50.34c-3.16,3.62-6.46,6.51-8.61,10.09
		c-2.99,4.95-7.27,7.86-12.48,9.54c-10.25,3.32-20.6,6.22-31.61,5.48c-2.62-0.18-5.28,0.31-8.15,0.51
		c-1.38,4.79-0.61,9.1,0.18,13.43c2.09,11.55,4.81,23.04,5.95,34.68c1.47,15.13,0.23,30.08-7,44.09
		c-10.68,20.7-26.77,33.69-50.64,35.52c-21.14,1.62-34.54-10.67-36.44-31.27c-0.12-1.33-0.22-2.67-0.22-4
		c-0.02-22.68-0.05-45.35-0.02-68.03c0.02-13.6,0.85-27.12,4.21-40.39c0.09-0.37-0.15-0.83-0.32-1.63
		c-1.99,1.04-3.98,1.89-5.77,3.05c-10.44,6.77-21.94,11.13-33.88,14.35c-10.02,2.71-20.18,3.88-30.59,2.01
		c-6.12-1.1-10.23-4.14-12.27-9.98c-5.57-15.92-5.18-31.51,2.94-46.51c8.49-15.69,20.37-28.67,33.51-40.63
		c7.68-7,16.53-12.23,25.6-17.1c11.04-5.92,22.36-11.33,33.34-17.35c13.76-7.54,28.67-10.29,44.03-10.42
		c15.02-0.12,30.05,0.65,45.06,1.34c10.53,0.48,19.19,5.84,27.32,11.85c6.13,4.53,11.37,9.98,14.96,16.93
		c3.05,5.9,6.68,11.51,10.34,17.75c1.55-2.22,2.92-4.65,4.74-6.69c2.94-3.31,5.79-6.88,9.34-9.45c8.42-6.09,17.75-4.92,24.72,2.84
		c4.17,4.65,7.65,9.91,11.87,14.5c6.95,7.56,14.26,14.79,21.41,22.17c6.06,6.25,12.1,12.52,18.71,19.37
		c1.06-2.45,2.11-4.75,3.05-7.09c12.69-31.44,35.33-53.66,65.22-69.07c7.47-3.85,15.52-5.75,24.02-5.48
		c10.2,0.33,19.18,2.79,23.3,13.1c0.89,0.04,1.4,0.22,1.73,0.05c18.51-9.33,38.68-12.55,58.86-15.57
		c21.32-3.19,42.75-5.89,64.36-4.32c19.67,1.42,39.28,3.79,58.94,5.47c12.51,1.06,25.07,1.55,37.6,2.43
		c4.25,0.29,8.5,0.78,12.69,1.51c6.62,1.16,8.27,3.37,7.62,10.14c-0.27,2.83-1.05,5.62-1.79,9.39
		c27.72-11.8,55.73-21.06,85.37-27.53c-1.32-9.44-2.67-19.01-4.06-28.93c3.77-1.46,7.09-2.65,10.34-4.02
		c18.02-7.57,36.58-13.31,55.78-17.16c16.24-3.26,30.84-1.03,44.4,9.33c13.9,10.62,26.22,22.37,33.94,38.15
		c2.72,5.56,4.56,11.57,6.42,17.5C1364.43,490.58,1366.87,499.59,1369.57,509.11z M1257.4,580.95c3.49,22.5,4.2,45.48,10.96,66.66
		c7.98,0,15.12-0.2,22.24,0.11c2.42,0.11,3.69-0.91,5.18-2.29c9.74-9.06,17.47-19.53,24.11-31.06c18.08-31.39,17.53-63.61,5.5-96.55
		c-3.13-8.56-6.44-17.06-9.99-25.46c-1.81-4.27-3.78-8.68-6.66-12.25c-3-3.71-6.82-7.05-10.9-9.56c-10.52-6.5-20.31-2.02-29.74,3.13
		c-1.31,0.72-2.27,2.7-2.68,4.28c-1.33,5.17-2.36,10.41-3.45,15.64C1256.02,522.08,1252.32,550.68,1257.4,580.95z M876.37,635.62
		c0.38-3.53,1.09-7.07,1.07-10.6c-0.08-15.34-6.34-27.73-17.73-38.15c-12.63-11.56-28.12-15.81-44.94-6.71
		c-2.69,1.46-5.8,2.21-8.79,3.06c-6.17,1.76-12.39,3.36-19.14,5.17c4.12,24.17-6.35,45.22-14.79,66.11
		c2.65,3.18,5.07,5.56,6.88,8.33c12.26,18.82,44.18,26.13,62.97,13.62c5.77-3.84,11.86-7.21,17.55-11.17
		c7.58-5.27,13.03-12.13,14.76-21.48C874.64,641.41,875.47,639.09,876.37,635.62z M1212.35,550.84c-7.31,2.79-14.51,5.92-21.95,8.3
		c-13.07,4.18-25.68,9.3-37.44,16.37c-2.28,1.37-4.56,2.9-6.44,4.76c-4.22,4.17-4.82,8.6-2.34,14.01c2.94,6.41,7.94,9.52,15.24,7.88
		c9.81-2.21,19.45-5.18,29.06-8.16c9-2.79,17.83-6.21,27.88-3.79c0-13.85,0-27.04,0-40.83
		C1214.87,549.88,1214.09,550.14,1212.35,550.84z M1179.03,671.78c11.77-2.9,21.52-9.66,31.32-16.28c1.15-0.78,2.37-2.26,2.54-3.55
		c0.93-6.98,2.06-13.98,0.9-21.64c-1.94,0.12-3.66,0.1-5.33,0.35c-7.29,1.1-14.55,2.4-21.86,3.41c-10.72,1.48-21.1,4.32-30.8,8.91
		c-5.75,2.72-11.39,6.32-15.99,10.66c-5.97,5.64-4.82,12.7,1.63,17.72c3.52,2.74,7.45,4.01,11.9,3.54
		C1161.56,674.03,1169.77,673.09,1179.03,671.78z M637.71,521.18c-1.1-4.38-4.12-5.12-8.22-4.77c-11.74,1.02-22.76,4.74-33.73,8.6
		c-10.82,3.8-21.13,8.64-29.88,16.24c-4.39,3.82-5.21,6.69-2.34,11.66c1.37,2.38,3.65,4.45,5.95,6.04
		c5.8,4.02,12.35,3.27,18.83,2.12c10.89-1.94,19.81-7.97,28.9-13.68c7.14-4.48,12.76-10.5,17.51-17.29
		C636.32,527.85,636.87,524.88,637.71,521.18z M731.07,628.26c1.27-2.22,3.14-4.3,3.7-6.69c1.12-4.74,1.74-9.62,2.17-14.47
		c0.89-10.17,1.98-20.39-0.5-30.49c-1.83-7.46-6.32-12.43-14.79-14.4c-1.1,2.66-2.4,4.96-3,7.43c-3.29,13.53-3.42,27.32-2.48,41.07
		c0.39,5.63,1.05,11.49,5.26,16.18C724.03,629.79,726.57,631.06,731.07,628.26z"/>
</g>
</svg>
