{"asset":{"version":"2.0","generator":"THREE.GLTFExporter"},"scenes":[{"name":"AuxScene","nodes":[20]}],"scene":0,"nodes":[{"mesh":0},{"mesh":1},{"mesh":2},{"mesh":3},{"mesh":4},{"mesh":5},{"mesh":6},{"mesh":7},{"mesh":8},{"mesh":9},{"mesh":10},{"mesh":11},{"mesh":12},{"mesh":13},{"mesh":14},{"mesh":15},{"matrix":[1,0,0,0,0,-1,1.2246467991473532e-16,0,0,-1.2246467991473532e-16,-1,0,-0.7,0.5,0,1],"children":[0,1,2,3,4,5,6,7,8,9,10,11,12,13,14,15]},{"children":[16]},{"matrix":[1,0,0,0,0,1,0,0,0,0,1,0,-475.7263651371002,188.09466552734375,19.99999999999998,1],"children":[17]},{"children":[18]},{"children":[19]}],"bufferViews":[{"buffer":0,"byteOffset":0,"byteLength":23616,"target":34962,"byteStride":12},{"buffer":0,"byteOffset":23616,"byteLength":15744,"target":34962,"byteStride":8},{"buffer":0,"byteOffset":39360,"byteLength":23616,"target":34962,"byteStride":12},{"buffer":0,"byteOffset":62976,"byteLength":6048,"target":34962,"byteStride":12},{"buffer":0,"byteOffset":69024,"byteLength":4032,"target":34962,"byteStride":8},{"buffer":0,"byteOffset":73056,"byteLength":6048,"target":34962,"byteStride":12},{"buffer":0,"byteOffset":79104,"byteLength":9360,"target":34962,"byteStride":12},{"buffer":0,"byteOffset":88464,"byteLength":6240,"target":34962,"byteStride":8},{"buffer":0,"byteOffset":94704,"byteLength":9360,"target":34962,"byteStride":12},{"buffer":0,"byteOffset":104064,"byteLength":11520,"target":34962,"byteStride":12},{"buffer":0,"byteOffset":115584,"byteLength":7680,"target":34962,"byteStride":8},{"buffer":0,"byteOffset":123264,"byteLength":11520,"target":34962,"byteStride":12},{"buffer":0,"byteOffset":134784,"byteLength":4896,"target":34962,"byteStride":12},{"buffer":0,"byteOffset":139680,"byteLength":3264,"target":34962,"byteStride":8},{"buffer":0,"byteOffset":142944,"byteLength":4896,"target":34962,"byteStride":12},{"buffer":0,"byteOffset":147840,"byteLength":5904,"target":34962,"byteStride":12},{"buffer":0,"byteOffset":153744,"byteLength":3936,"target":34962,"byteStride":8},{"buffer":0,"byteOffset":157680,"byteLength":5904,"target":34962,"byteStride":12},{"buffer":0,"byteOffset":163584,"byteLength":15408,"target":34962,"byteStride":12},{"buffer":0,"byteOffset":178992,"byteLength":10272,"target":34962,"byteStride":8},{"buffer":0,"byteOffset":189264,"byteLength":15408,"target":34962,"byteStride":12},{"buffer":0,"byteOffset":204672,"byteLength":3456,"target":34962,"byteStride":12},{"buffer":0,"byteOffset":208128,"byteLength":2304,"target":34962,"byteStride":8},{"buffer":0,"byteOffset":210432,"byteLength":3456,"target":34962,"byteStride":12},{"buffer":0,"byteOffset":213888,"byteLength":12672,"target":34962,"byteStride":12},{"buffer":0,"byteOffset":226560,"byteLength":8448,"target":34962,"byteStride":8},{"buffer":0,"byteOffset":235008,"byteLength":12672,"target":34962,"byteStride":12},{"buffer":0,"byteOffset":247680,"byteLength":6912,"target":34962,"byteStride":12},{"buffer":0,"byteOffset":254592,"byteLength":4608,"target":34962,"byteStride":8},{"buffer":0,"byteOffset":259200,"byteLength":6912,"target":34962,"byteStride":12},{"buffer":0,"byteOffset":266112,"byteLength":2880,"target":34962,"byteStride":12},{"buffer":0,"byteOffset":268992,"byteLength":1920,"target":34962,"byteStride":8},{"buffer":0,"byteOffset":270912,"byteLength":2880,"target":34962,"byteStride":12},{"buffer":0,"byteOffset":273792,"byteLength":4608,"target":34962,"byteStride":12},{"buffer":0,"byteOffset":278400,"byteLength":3072,"target":34962,"byteStride":8},{"buffer":0,"byteOffset":281472,"byteLength":4608,"target":34962,"byteStride":12},{"buffer":0,"byteOffset":286080,"byteLength":5040,"target":34962,"byteStride":12},{"buffer":0,"byteOffset":291120,"byteLength":3360,"target":34962,"byteStride":8},{"buffer":0,"byteOffset":294480,"byteLength":5040,"target":34962,"byteStride":12},{"buffer":0,"byteOffset":299520,"byteLength":3312,"target":34962,"byteStride":12},{"buffer":0,"byteOffset":302832,"byteLength":2208,"target":34962,"byteStride":8},{"buffer":0,"byteOffset":305040,"byteLength":3312,"target":34962,"byteStride":12},{"buffer":0,"byteOffset":308352,"byteLength":5760,"target":34962,"byteStride":12},{"buffer":0,"byteOffset":314112,"byteLength":3840,"target":34962,"byteStride":8},{"buffer":0,"byteOffset":317952,"byteLength":5760,"target":34962,"byteStride":12},{"buffer":0,"byteOffset":323712,"byteLength":5904,"target":34962,"byteStride":12},{"buffer":0,"byteOffset":329616,"byteLength":3936,"target":34962,"byteStride":8},{"buffer":0,"byteOffset":333552,"byteLength":5904,"target":34962,"byteStride":12}],"buffers":[{"byteLength":339456,"uri":"data:application/octet-stream;base64,"}],"accessors":[{"bufferView":0,"componentType":5126,"count":1968,"max":[953,375,40],"min":[669,256,0],"type":"VEC3"},{"bufferView":1,"componentType":5126,"count":1968,"max":[953,375],"min":[257,-39],"type":"VEC2"},{"bufferView":2,"componentType":5126,"count":1968,"max":[1,1,1],"min":[-1,-1,-1],"type":"VEC3"},{"bufferView":3,"componentType":5126,"count":504,"max":[952,212,40],"min":[806,3,0],"type":"VEC3"},{"bufferView":4,"componentType":5126,"count":504,"max":[952,212],"min":[10,-39],"type":"VEC2"},{"bufferView":5,"componentType":5126,"count":504,"max":[1,1,1],"min":[-1,-1,-1],"type":"VEC3"},{"bufferView":6,"componentType":5126,"count":780,"max":[318,216,40],"min":[151,0,0],"type":"VEC3"},{"bufferView":7,"componentType":5126,"count":780,"max":[318,216],"min":[14,-39],"type":"VEC2"},{"bufferView":8,"componentType":5126,"count":780,"max":[1,1,1],"min":[-1,-1,-1],"type":"VEC3"},{"bufferView":9,"componentType":5126,"count":960,"max":[475,216,40],"min":[339,0,0],"type":"VEC3"},{"bufferView":10,"componentType":5126,"count":960,"max":[475,216],"min":[14,-39],"type":"VEC2"},{"bufferView":11,"componentType":5126,"count":960,"max":[1,1,1],"min":[-1,-1,-1],"type":"VEC3"},{"bufferView":12,"componentType":5126,"count":408,"max":[781,212,40],"min":[649,3,0],"type":"VEC3"},{"bufferView":13,"componentType":5126,"count":408,"max":[781,212],"min":[7,-39],"type":"VEC2"},{"bufferView":14,"componentType":5126,"count":408,"max":[1,1,1],"min":[-1,-1,-1],"type":"VEC3"},{"bufferView":15,"componentType":5126,"count":492,"max":[133,216,40],"min":[1,3,0],"type":"VEC3"},{"bufferView":16,"componentType":5126,"count":492,"max":[213,216],"min":[1,-39],"type":"VEC2"},{"bufferView":17,"componentType":5126,"count":492,"max":[1,1,1],"min":[-1,-1,-1],"type":"VEC3"},{"bufferView":18,"componentType":5126,"count":1284,"max":[207,375,40],"min":[0,255,0],"type":"VEC3"},{"bufferView":19,"componentType":5126,"count":1284,"max":[375,375],"min":[0,-39],"type":"VEC2"},{"bufferView":20,"componentType":5126,"count":1284,"max":[1,1,1],"min":[-1,-1,-1],"type":"VEC3"},{"bufferView":21,"componentType":5126,"count":288,"max":[631,216,40],"min":[485,3,0],"type":"VEC3"},{"bufferView":22,"componentType":5126,"count":288,"max":[631,216],"min":[6,-39],"type":"VEC2"},{"bufferView":23,"componentType":5126,"count":288,"max":[1,1,1],"min":[-1,-1,-1],"type":"VEC3"},{"bufferView":24,"componentType":5126,"count":1056,"max":[398,375,40],"min":[223,255,0],"type":"VEC3"},{"bufferView":25,"componentType":5126,"count":1056,"max":[398,375],"min":[223,-39],"type":"VEC2"},{"bufferView":26,"componentType":5126,"count":1056,"max":[1,1,1],"min":[-1,-1,-1],"type":"VEC3"},{"bufferView":27,"componentType":5126,"count":576,"max":[609,377,40],"min":[547,256,0],"type":"VEC3"},{"bufferView":28,"componentType":5126,"count":576,"max":[609,377],"min":[257,-39],"type":"VEC2"},{"bufferView":29,"componentType":5126,"count":576,"max":[1,1,1],"min":[-1,-1,-1],"type":"VEC3"},{"bufferView":30,"componentType":5126,"count":240,"max":[490,373,40],"min":[441,257,0],"type":"VEC3"},{"bufferView":31,"componentType":5126,"count":240,"max":[490,373],"min":[257,-39],"type":"VEC2"},{"bufferView":32,"componentType":5126,"count":240,"max":[1,1,1],"min":[-0.999671459197998,-1,-1],"type":"VEC3"},{"bufferView":33,"componentType":5126,"count":384,"max":[250,373,40],"min":[158,256,0],"type":"VEC3"},{"bufferView":34,"componentType":5126,"count":384,"max":[372,373],"min":[158,-39],"type":"VEC2"},{"bufferView":35,"componentType":5126,"count":384,"max":[1,1,1],"min":[-0.9899494647979736,-1,-1],"type":"VEC3"},{"bufferView":36,"componentType":5126,"count":420,"max":[443,375,40],"min":[389,255,0],"type":"VEC3"},{"bufferView":37,"componentType":5126,"count":420,"max":[443,375],"min":[259,-39],"type":"VEC2"},{"bufferView":38,"componentType":5126,"count":420,"max":[1,1,1],"min":[-1,-0.9899494647979736,-1],"type":"VEC3"},{"bufferView":39,"componentType":5126,"count":276,"max":[716,373,40],"min":[634,258,0],"type":"VEC3"},{"bufferView":40,"componentType":5126,"count":276,"max":[716,373],"min":[258,-39],"type":"VEC2"},{"bufferView":41,"componentType":5126,"count":276,"max":[1,1,1],"min":[-1,-1,-1],"type":"VEC3"},{"bufferView":42,"componentType":5126,"count":480,"max":[663,375,40],"min":[601,256,0],"type":"VEC3"},{"bufferView":43,"componentType":5126,"count":480,"max":[663,375],"min":[258,-39],"type":"VEC2"},{"bufferView":44,"componentType":5126,"count":480,"max":[1,1,1],"min":[-1,-1,-1],"type":"VEC3"},{"bufferView":45,"componentType":5126,"count":492,"max":[537,375,40],"min":[492,256,0],"type":"VEC3"},{"bufferView":46,"componentType":5126,"count":492,"max":[537,375],"min":[258,-39],"type":"VEC2"},{"bufferView":47,"componentType":5126,"count":492,"max":[1,1,1],"min":[-1,-1,-1],"type":"VEC3"}],"materials":[{"pbrMetallicRoughness":{"metallicFactor":1,"roughnessFactor":0},"doubleSided":true},{"pbrMetallicRoughness":{"metallicFactor":1,"roughnessFactor":0},"doubleSided":true},{"pbrMetallicRoughness":{"metallicFactor":1,"roughnessFactor":0},"doubleSided":true},{"pbrMetallicRoughness":{"metallicFactor":1,"roughnessFactor":0},"doubleSided":true},{"pbrMetallicRoughness":{"metallicFactor":1,"roughnessFactor":0},"doubleSided":true},{"pbrMetallicRoughness":{"metallicFactor":1,"roughnessFactor":0},"doubleSided":true},{"pbrMetallicRoughness":{"metallicFactor":1,"roughnessFactor":0},"doubleSided":true},{"pbrMetallicRoughness":{"metallicFactor":1,"roughnessFactor":0},"doubleSided":true},{"pbrMetallicRoughness":{"metallicFactor":1,"roughnessFactor":0},"doubleSided":true},{"pbrMetallicRoughness":{"metallicFactor":1,"roughnessFactor":0},"doubleSided":true},{"pbrMetallicRoughness":{"metallicFactor":1,"roughnessFactor":0},"doubleSided":true},{"pbrMetallicRoughness":{"metallicFactor":1,"roughnessFactor":0},"doubleSided":true},{"pbrMetallicRoughness":{"metallicFactor":1,"roughnessFactor":0},"doubleSided":true},{"pbrMetallicRoughness":{"metallicFactor":1,"roughnessFactor":0},"doubleSided":true},{"pbrMetallicRoughness":{"metallicFactor":1,"roughnessFactor":0},"doubleSided":true},{"pbrMetallicRoughness":{"metallicFactor":1,"roughnessFactor":0},"doubleSided":true}],"meshes":[{"primitives":[{"mode":4,"attributes":{"POSITION":0,"TEXCOORD_0":1,"NORMAL":2},"material":0}]},{"primitives":[{"mode":4,"attributes":{"POSITION":3,"TEXCOORD_0":4,"NORMAL":5},"material":1}]},{"primitives":[{"mode":4,"attributes":{"POSITION":6,"TEXCOORD_0":7,"NORMAL":8},"material":2}]},{"primitives":[{"mode":4,"attributes":{"POSITION":9,"TEXCOORD_0":10,"NORMAL":11},"material":3}]},{"primitives":[{"mode":4,"attributes":{"POSITION":12,"TEXCOORD_0":13,"NORMAL":14},"material":4}]},{"primitives":[{"mode":4,"attributes":{"POSITION":15,"TEXCOORD_0":16,"NORMAL":17},"material":5}]},{"primitives":[{"mode":4,"attributes":{"POSITION":18,"TEXCOORD_0":19,"NORMAL":20},"material":6}]},{"primitives":[{"mode":4,"attributes":{"POSITION":21,"TEXCOORD_0":22,"NORMAL":23},"material":7}]},{"primitives":[{"mode":4,"attributes":{"POSITION":24,"TEXCOORD_0":25,"NORMAL":26},"material":8}]},{"primitives":[{"mode":4,"attributes":{"POSITION":27,"TEXCOORD_0":28,"NORMAL":29},"material":9}]},{"primitives":[{"mode":4,"attributes":{"POSITION":30,"TEXCOORD_0":31,"NORMAL":32},"material":10}]},{"primitives":[{"mode":4,"attributes":{"POSITION":33,"TEXCOORD_0":34,"NORMAL":35},"material":11}]},{"primitives":[{"mode":4,"attributes":{"POSITION":36,"TEXCOORD_0":37,"NORMAL":38},"material":12}]},{"primitives":[{"mode":4,"attributes":{"POSITION":39,"TEXCOORD_0":40,"NORMAL":41},"material":13}]},{"primitives":[{"mode":4,"attributes":{"POSITION":42,"TEXCOORD_0":43,"NORMAL":44},"material":14}]},{"primitives":[{"mode":4,"attributes":{"POSITION":45,"TEXCOORD_0":46,"NORMAL":47},"material":15}]}]}